<svg width="512" height="512" viewBox="0 0 512 512" fill="none" xmlns="http://www.w3.org/2000/svg">
<g clip-path="url(#clip0_36_10)">
<path d="M408.5 85.5L346.56 16.6187C342.574 11.4479 337.455 7.26074 331.597 4.37958C325.738 1.49842 319.297 0.000106131 312.768 0L199.232 0C192.707 0.00336925 186.27 1.50325 180.415 4.38428C174.561 7.26532 169.445 11.4507 165.461 16.6187L104 85.5893C73.8139 86.8968 53.5516 99.7986 32.6405 121.608C11.7295 143.417 0.0376215 172.452 0 202.667L0 394.667C0.033881 425.775 12.4066 455.6 34.4036 477.596C56.4005 499.593 86.225 511.966 117.333 512H394.667C425.775 511.966 455.6 499.593 477.596 477.596C499.593 455.6 511.966 425.775 512 394.667V202.667C511.962 172.452 500.271 143.417 479.359 121.608C458.448 99.7986 438.686 86.8074 408.5 85.5ZM448 394.667C448 408.812 442.381 422.377 432.379 432.379C422.377 442.381 408.812 448 394.667 448H117.333C103.188 448 89.6229 442.381 79.621 432.379C69.619 422.377 64 408.812 64 394.667V202.667C64 188.522 69.619 174.956 79.621 164.954C89.6229 154.952 103.188 149.333 117.333 149.333L180.415 85.5893H256H331.597L394.667 149.333C408.812 149.333 422.377 154.952 432.379 164.954C442.381 174.956 448 188.522 448 202.667V394.667Z" fill="black"/>
<path d="M256 165C232.794 165 210.108 171.881 190.813 184.774C171.518 197.667 156.479 215.992 147.598 237.432C138.717 258.872 136.394 282.464 140.921 305.224C145.448 327.984 156.623 348.891 173.033 365.301C189.442 381.71 210.349 392.885 233.109 397.412C255.87 401.939 279.462 399.616 300.901 390.735C322.341 381.855 340.666 366.816 353.559 347.52C366.452 328.225 373.333 305.54 373.333 282.333C373.299 251.225 360.927 221.4 338.93 199.404C316.933 177.407 287.108 165.034 256 165ZM256 335.667C245.452 335.667 235.14 332.539 226.369 326.678C217.599 320.818 210.763 312.489 206.726 302.743C202.69 292.998 201.633 282.274 203.691 271.929C205.749 261.583 210.829 252.08 218.288 244.621C225.746 237.162 235.249 232.083 245.595 230.025C255.941 227.967 266.664 229.023 276.41 233.06C286.155 237.096 294.485 243.932 300.345 252.703C306.205 261.474 309.333 271.785 309.333 282.333C309.333 296.478 303.714 310.044 293.712 320.046C283.71 330.048 270.145 335.667 256 335.667Z" fill="black"/>
</g>
<defs>
<clipPath id="clip0_36_10">
<rect width="512" height="512" fill="white"/>
</clipPath>
</defs>
</svg>
