<svg width="512" height="512" viewBox="0 0 512 512" fill="none" xmlns="http://www.w3.org/2000/svg">
<path d="M256 176.02C235.604 176.02 215.666 182.068 198.707 193.399C181.748 204.731 168.53 220.837 160.725 239.68C152.92 258.524 150.877 279.259 154.856 299.263C158.836 319.268 168.657 337.643 183.08 352.065C197.502 366.487 215.877 376.309 235.881 380.288C255.885 384.267 276.621 382.225 295.464 374.42C314.308 366.614 330.414 353.397 341.745 336.438C353.077 319.479 359.125 299.541 359.125 279.145C359.095 251.803 348.221 225.59 328.887 206.257C309.554 186.924 283.341 176.049 256 176.02ZM256 326.02C246.729 326.02 237.666 323.27 229.958 318.12C222.249 312.969 216.241 305.648 212.693 297.083C209.145 288.518 208.217 279.093 210.026 270C211.834 260.907 216.299 252.554 222.854 245.999C229.41 239.443 237.762 234.979 246.855 233.17C255.948 231.362 265.373 232.29 273.938 235.838C282.503 239.386 289.824 245.394 294.975 253.102C300.126 260.811 302.875 269.874 302.875 279.145C302.875 291.577 297.936 303.499 289.146 312.29C280.355 321.081 268.432 326.02 256 326.02Z" fill="black"/>
<path d="M390.033 106.146L335.594 45.6063C332.091 41.0616 327.591 37.3815 322.442 34.8492C317.293 32.317 311.632 31.0001 305.894 31H206.106C200.371 31.003 194.714 32.3212 189.568 34.8534C184.422 37.3855 179.926 41.0641 176.425 45.6063L122.406 106.225C95.8755 107.374 78.0668 118.714 59.688 137.882C41.3091 157.05 31.0331 182.569 31 209.125V377.875C31.0298 405.216 41.9043 431.429 61.2375 450.762C80.5707 470.096 106.784 480.97 134.125 481H377.875C405.216 480.97 431.429 470.096 450.762 450.762C470.096 431.429 480.97 405.216 481 377.875V209.125C480.967 182.569 470.691 157.05 452.312 137.882C433.933 118.714 416.564 107.296 390.033 106.146ZM424.75 377.875C424.75 390.307 419.811 402.23 411.021 411.021C402.23 419.811 390.307 424.75 377.875 424.75H134.125C121.693 424.75 109.77 419.811 100.979 411.021C92.1886 402.23 87.25 390.307 87.25 377.875V209.125C87.25 196.693 92.1886 184.77 100.979 175.979C109.77 167.189 121.693 162.25 134.125 162.25L189.568 106.225H322.442L377.875 162.25C390.307 162.25 402.23 167.189 411.021 175.979C419.811 184.77 424.75 196.693 424.75 209.125V377.875Z" fill="black"/>
</svg>
