<svg width="512" height="512" viewBox="0 0 512 512" fill="none" xmlns="http://www.w3.org/2000/svg">
<g clip-path="url(#clip0_38_38)">
<path d="M68.9243 348.989L155.138 314.433C158.814 312.951 161.912 310.315 163.965 306.923C166.018 303.531 166.915 299.565 166.521 295.624L160.654 236.274C222.372 214.054 289.856 213.988 351.531 236.088L345.548 295.45C345.139 299.393 346.024 303.359 348.072 306.749C350.119 310.139 353.216 312.767 356.895 314.236L443.041 348.624C447.028 350.186 451.437 350.307 455.509 348.966C459.581 347.624 463.061 344.905 465.347 341.277L508.504 272.291C510.698 268.783 511.64 264.637 511.175 260.53C510.711 256.423 508.867 252.597 505.946 249.677C367.924 111.655 144.18 112.089 6.10422 250.165C3.1752 253.09 1.32264 256.92 0.849053 261.029C0.375465 265.139 1.30885 269.284 3.49677 272.789L46.5193 341.691C48.8174 345.325 52.3117 348.041 56.401 349.374C60.4903 350.706 64.9187 350.57 68.9243 348.989Z" fill="black"/>
</g>
<defs>
<clipPath id="clip0_38_38">
<rect width="512" height="512" fill="white"/>
</clipPath>
</defs>
</svg>
