<svg width="512" height="512" viewBox="0 0 512 512" fill="none" xmlns="http://www.w3.org/2000/svg">
<rect width="512" height="512" fill="#7888BE"/>
<circle cx="266" cy="266" r="200" fill="#141414"/>
<circle cx="256" cy="256" r="199.5" fill="#92A7EE" stroke="black"/>
<path d="M302 314.5V179.5H299.5V245.75H203.5V179.5H201V314.5H203.5V248.25H299.5V314.5H302ZM281.25 337C278.083 337 275.833 336.333 274.5 335C273 333.5 272.25 331.167 272.25 328V272.5H230.5V328C230.5 331.167 229.833 333.5 228.5 335C227 336.333 224.667 337 221.5 337H182.75C179.583 337 177.333 336.333 176 335C174.5 333.5 173.75 331.167 173.75 328V166C173.75 162.833 174.5 160.583 176 159.25C177.333 157.75 179.583 157 182.75 157H221.5C224.667 157 227 157.75 228.5 159.25C229.833 160.583 230.5 162.833 230.5 166V220.25H272.25V166C272.25 162.833 273 160.583 274.5 159.25C275.833 157.75 278.083 157 281.25 157H320C323.167 157 325.5 157.75 327 159.25C328.333 160.583 329 162.833 329 166V328C329 331.167 328.333 333.5 327 335C325.5 336.333 323.167 337 320 337H281.25ZM273.25 337.25L305.75 364.25C306.417 364.917 307.5 365.5 309 366C310.333 366.5 311.833 366.75 313.5 366.75H352.25C356.25 366.75 359.167 365.833 361 364C362.833 362.167 363.75 359.25 363.75 355.25V193.25C363.75 191.083 363.5 189.25 363 187.75C362.333 186.25 361.417 185 360.25 184L328 156.75C327.167 156.083 326.083 155.583 324.75 155.25C323.25 154.75 321.667 154.5 320 154.5H281.25C277.25 154.5 274.333 155.417 272.5 157.25C270.667 159.083 269.75 162 269.75 166V217.75H265.25V193.25C265.25 191.083 265 189.25 264.5 187.75C263.833 186.25 262.917 185 261.75 184L229.5 156.75C228.667 156.083 227.583 155.583 226.25 155.25C224.75 154.75 223.167 154.5 221.5 154.5H182.75C178.75 154.5 175.833 155.417 174 157.25C172.167 159.083 171.25 162 171.25 166V328C171.25 330.167 171.583 332 172.25 333.5C172.75 335 173.583 336.25 174.75 337.25L207.25 364.25C207.917 364.917 209 365.5 210.5 366C211.833 366.5 213.333 366.75 215 366.75H253.75C257.75 366.75 260.667 365.833 262.5 364C264.333 362.167 265.25 359.25 265.25 355.25V302.25H269.75V328C269.75 330.167 270.083 332 270.75 333.5C271.25 335 272.083 336.25 273.25 337.25Z" fill="black"/>
<rect x="346" y="157" width="31" height="224" fill="#92A7EE"/>
<rect x="381" y="350" width="31" height="212" transform="rotate(90 381 350)" fill="#92A7EE"/>
</svg>
