<svg width="512" height="512" viewBox="0 0 512 512" fill="none" xmlns="http://www.w3.org/2000/svg">
<g clip-path="url(#clip0_36_8)">
<path d="M256 0C114.837 0 0 114.837 0 256C0 397.163 114.837 512 256 512C397.163 512 512 397.163 512 256C512 114.837 397.163 0 256 0ZM256 462C138.368 462 52 373.632 52 256C52 138.368 138.368 48.5 256 48.5C373.632 48.5 463 138.368 463 256C463 373.632 373.632 462 256 462ZM341.333 256H389C389 319.317 340.959 377.824 280.5 388L277.333 426.667H234.667L232 388C171.541 377.824 122.5 319.317 122.5 256H170.667C170.667 303.061 208.939 341.333 256 341.333C303.061 341.333 341.333 303.061 341.333 256ZM213.333 256V149.333C213.333 125.76 232.427 106.667 256 106.667C279.573 106.667 298.667 125.76 298.667 149.333V256C298.667 279.573 279.573 298.667 256 298.667C232.427 298.667 213.333 279.573 213.333 256Z" fill="black"/>
</g>
<defs>
<clipPath id="clip0_36_8">
<rect width="512" height="512" fill="white"/>
</clipPath>
</defs>
</svg>
