<svg width="512" height="512" viewBox="0 0 512 512" fill="none" xmlns="http://www.w3.org/2000/svg">
<path d="M256 36C131.931 36 31 136.931 31 261C31 385.069 131.931 486 256 486C380.069 486 481 385.069 481 261C481 136.931 380.069 36 256 36ZM256 442.055C152.612 442.055 76.7031 364.388 76.7031 261C76.7031 157.612 152.612 78.627 256 78.627C359.388 78.627 437.934 157.612 437.934 261C437.934 364.388 359.388 442.055 256 442.055ZM331 261H372.895C372.895 316.65 330.671 368.072 277.533 377.016L274.75 411H237.25L234.906 377.016C181.769 368.072 138.666 316.65 138.666 261H181C181 302.363 214.637 336 256 336C297.363 336 331 302.363 331 261ZM218.5 261V167.25C218.5 146.531 235.281 129.75 256 129.75C276.719 129.75 293.5 146.531 293.5 167.25V261C293.5 281.719 276.719 298.5 256 298.5C235.281 298.5 218.5 281.719 218.5 261Z" fill="black"/>
</svg>
