<svg width="512" height="512" viewBox="0 0 512 512" fill="none" xmlns="http://www.w3.org/2000/svg">
<path d="M130.348 169.013C122.687 170.948 115.618 174.921 109.937 180.603C101.654 188.885 97.0001 200.119 97 211.833V370.833C97 382.547 101.654 393.781 109.937 402.063C118.219 410.346 129.453 415 141.167 415H370.833C372.578 415 374.311 414.893 376.026 414.69L417.403 456.068C403.248 463.81 387.257 467.982 370.833 468H141.167C115.405 467.972 90.7064 457.726 72.4902 439.51C54.274 421.294 44.0281 396.595 44 370.833V211.833C44.0312 186.812 53.7134 162.767 71.0303 144.706C77.1843 138.288 83.2713 132.802 89.6826 128.347L130.348 169.013ZM303.011 44C308.417 44.0001 313.752 45.241 318.604 47.627C323.455 50.0129 327.694 53.4807 330.995 57.7627L382.289 114.805C407.287 115.887 423.653 126.645 440.97 144.706C458.287 162.767 467.969 186.812 468 211.833V370.833C467.984 385.357 464.718 399.544 458.609 412.421L415 368.812V211.833C415 200.119 410.346 188.885 402.063 180.603C393.781 172.32 382.547 167.667 370.833 167.667L318.604 114.879H193.406L177.321 131.133L144.705 98.5166L181.022 57.7627C184.321 53.483 188.558 50.0167 193.406 47.6309C198.255 45.245 203.586 44.0028 208.989 44H303.011ZM217.5 256.164C215.229 260.203 213.595 264.596 212.682 269.19C210.977 277.758 211.852 286.639 215.195 294.709C218.538 302.779 224.199 309.677 231.462 314.53C238.725 319.383 247.265 321.974 256 321.974C263.648 321.974 271.09 319.988 277.642 316.306L315.759 354.423C308.897 359.775 301.311 364.211 293.184 367.577C275.429 374.931 255.892 376.856 237.044 373.107C218.196 369.358 200.882 360.104 187.293 346.515C173.704 332.926 164.449 315.612 160.7 296.764C156.951 277.915 158.875 258.378 166.229 240.623C169.596 232.496 174.031 224.91 179.383 218.048L217.5 256.164ZM256 180.641C281.761 180.669 306.46 190.915 324.676 209.131C342.892 227.347 353.139 252.046 353.167 277.808C353.167 286.54 351.989 295.183 349.703 303.515L230.292 184.104C238.624 181.818 247.267 180.641 256 180.641Z" fill="black"/>
<line x1="42.2843" y1="43" x2="481" y2="481.716" stroke="black" stroke-width="40" stroke-linecap="round"/>
</svg>
