<svg width="512" height="512" viewBox="0 0 512 512" fill="none" xmlns="http://www.w3.org/2000/svg">
<g clip-path="url(#clip0_36_10)">
<path d="M212.491 251.49C208.173 257.582 205.162 264.54 203.692 271.929C201.634 282.274 202.689 292.998 206.726 302.743C210.763 312.489 217.599 320.818 226.37 326.679C235.14 332.539 245.452 335.667 256 335.667C267.124 335.667 277.888 332.191 286.843 325.843L332.391 371.391C323.032 379.418 312.417 385.966 300.902 390.735C279.462 399.616 255.87 401.939 233.11 397.412C210.349 392.885 189.442 381.71 173.033 365.301C156.623 348.891 145.449 327.984 140.921 305.224C136.394 282.463 138.717 258.871 147.598 237.432C152.368 225.917 158.914 215.3 166.942 205.941L212.491 251.49ZM256 165C287.109 165.034 316.933 177.406 338.93 199.403C360.927 221.4 373.3 251.225 373.333 282.333C373.333 295.549 371.1 308.596 366.797 320.944L303.02 257.167C302.203 255.641 301.312 254.151 300.345 252.703C295.463 245.396 288.866 239.433 281.165 235.312L217.388 171.535C229.737 167.232 242.784 165 256 165Z" fill="black"/>
<path d="M110.741 149.741C99.0266 151.2 88.0565 156.519 79.6211 164.954C69.6192 174.956 64 188.522 64 202.667V394.667C64.0001 408.812 69.6192 422.377 79.6211 432.379C89.623 442.381 103.188 448 117.333 448H394.667C399.01 448 403.298 447.469 407.445 446.445L455.773 494.773C437.52 505.924 416.408 511.976 394.667 512H117.333C86.2248 511.966 56.4002 499.594 34.4033 477.597C12.4065 455.6 0.0339615 425.775 0 394.667V202.667C0.0376215 172.453 11.7296 143.417 32.6406 121.607C41.5417 112.324 50.3253 104.655 59.8066 98.8066L110.741 149.741ZM312.768 0C319.296 0.000106131 325.738 1.49872 331.597 4.37988C337.455 7.26104 342.574 11.4484 346.56 16.6191L408.5 85.5C438.686 86.8074 458.448 99.7984 479.359 121.607C500.27 143.417 511.962 172.453 512 202.667V394.667C511.978 414.708 506.833 434.216 497.295 451.441L447.535 401.682C447.842 399.369 448 397.026 448 394.667V202.667C448 188.522 442.381 174.956 432.379 164.954C422.377 154.952 408.812 149.333 394.667 149.333L331.597 85.5889H180.415L156.056 110.202L116.931 71.0771L165.461 16.6191C169.444 11.4513 174.561 7.2658 180.415 4.38477C186.27 1.50373 192.707 0.00336925 199.232 0H312.768Z" fill="black"/>
<line x1="26.2843" y1="22" x2="476" y2="471.716" stroke="black" stroke-width="40" stroke-linecap="round"/>
</g>
<defs>
<clipPath id="clip0_36_10">
<rect width="512" height="512" fill="white"/>
</clipPath>
</defs>
</svg>
