<svg width="512" height="512" viewBox="0 0 512 512" fill="none" xmlns="http://www.w3.org/2000/svg">
<path d="M122.644 163.679C114.513 165.733 107.009 169.95 100.979 175.979C92.1887 184.77 87.25 196.693 87.25 209.125V377.875C87.25 390.307 92.1887 402.23 100.979 411.021C109.77 419.811 121.693 424.75 134.125 424.75H377.875C379.727 424.75 381.566 424.637 383.387 424.422L427.301 468.336C412.277 476.552 395.306 480.981 377.875 481H134.125C106.784 480.97 80.5705 470.096 61.2373 450.763C41.9041 431.429 31.0298 405.216 31 377.875V209.125C31.0331 182.569 41.3088 157.05 59.6875 137.882C66.2189 131.07 72.679 125.247 79.4834 120.519L122.644 163.679ZM305.894 31C311.632 31.0001 317.293 32.3173 322.442 34.8496C327.591 37.3819 332.091 41.0619 335.594 45.6064L390.033 106.146C416.564 107.296 433.934 118.714 452.312 137.882C470.691 157.05 480.967 182.569 481 209.125V377.875C480.982 394.608 476.9 410.917 469.305 425.486L424.652 380.834C424.714 379.852 424.75 378.865 424.75 377.875V209.125C424.75 196.693 419.811 184.77 411.021 175.979C402.23 167.189 390.307 162.25 377.875 162.25L322.442 106.225H189.568L169.908 126.09L135.429 91.6104L176.425 45.6064C179.926 41.0643 184.423 37.3857 189.568 34.8535C194.714 32.3214 200.372 31.003 206.106 31H305.894ZM215.139 256.174C212.729 260.461 210.995 265.124 210.025 270C208.217 279.093 209.146 288.518 212.693 297.083C216.241 305.648 222.25 312.969 229.958 318.12C237.666 323.271 246.729 326.02 256 326.02C264.117 326.02 272.016 323.912 278.969 320.004L319.423 360.458C312.14 366.139 304.089 370.847 295.464 374.42C276.62 382.225 255.885 384.267 235.881 380.288C215.877 376.309 197.501 366.487 183.079 352.064C168.657 337.642 158.836 319.268 154.856 299.264C150.877 279.26 152.919 258.524 160.725 239.681C164.297 231.055 169.005 223.004 174.686 215.721L215.139 256.174ZM256 176.02C283.341 176.049 309.554 186.924 328.888 206.257C348.221 225.59 359.095 251.803 359.125 279.145C359.125 289.823 357.466 300.376 354.26 310.441L224.702 180.884C234.768 177.678 245.321 176.02 256 176.02Z" fill="black"/>
<line x1="31.2843" y1="32" x2="481" y2="481.716" stroke="black" stroke-width="40" stroke-linecap="round"/>
</svg>
