<svg width="512" height="512" viewBox="0 0 512 512" fill="none" xmlns="http://www.w3.org/2000/svg">
<g clip-path="url(#clip0_36_8)">
<path d="M90.4326 131.433C66.0108 165.746 52 208.621 52 256C52 373.632 138.368 462 256 462C303.771 462 346.88 447.426 381.236 422.236L415.281 456.281C371.536 491.143 316.159 512 256 512C114.837 512 0 397.163 0 256C0 195.841 20.8557 140.463 55.7178 96.7178L90.4326 131.433ZM170.667 256C170.667 303.061 208.939 341.333 256 341.333C268.954 341.333 281.241 338.432 292.248 333.248L327.855 368.855C313.588 378.425 297.537 385.132 280.5 388L277.333 426.667H234.667L232 388C171.541 377.824 122.5 319.317 122.5 256H170.667ZM256 0C397.163 0 512 114.837 512 256C512 315.43 491.644 370.193 457.54 413.687L423.662 379.809C448.565 345.823 463 303.275 463 256C463 138.368 373.632 48.5 256 48.5C208.447 48.5 166.004 63.1866 132.31 88.4561L98.3125 54.459C141.806 20.355 196.57 0 256 0ZM389 256C389 280.702 381.687 304.672 369.179 325.325L334.142 290.288C338.765 279.79 341.333 268.19 341.333 256H389ZM257.632 298.632C257.09 298.652 256.546 298.667 256 298.667C232.427 298.667 213.333 279.573 213.333 256V254.333L257.632 298.632ZM256 106.667C279.573 106.667 298.667 125.76 298.667 149.333V254.813L213.333 169.479V149.333C213.333 125.76 232.427 106.667 256 106.667Z" fill="black"/>
<line x1="24.2843" y1="22" x2="474" y2="471.716" stroke="black" stroke-width="40" stroke-linecap="round"/>
</g>
<defs>
<clipPath id="clip0_36_8">
<rect width="512" height="512" fill="white"/>
</clipPath>
</defs>
</svg>
