<svg width="512" height="512" viewBox="0 0 512 512" fill="none" xmlns="http://www.w3.org/2000/svg">
<path d="M108.431 149.466C88.2355 179.116 76.7031 215.704 76.7031 256C76.7031 359.388 152.612 437.055 256 437.055C296.648 437.055 333.453 425.046 363.157 404.192L393.19 434.226C355.192 463.543 307.597 481 256 481C131.931 481 31 380.069 31 256C31 204.403 48.4561 156.807 77.7734 118.809L108.431 149.466ZM181 256C181 297.363 214.637 331 256 331C266.042 331 275.628 329.017 284.388 325.423L316.12 357.155C304.355 364.52 291.312 369.697 277.533 372.016L274.75 406H237.25L234.906 372.016C181.769 363.072 138.666 311.65 138.666 256H181ZM256 31C380.069 31 481 131.931 481 256C481 306.886 464.022 353.88 435.433 391.614L405.559 361.74C426.092 332.395 437.934 296.137 437.934 256C437.934 152.612 359.388 73.627 256 73.627C215.625 73.627 179.44 85.672 150.331 106.513L120.385 76.5664C158.119 47.9769 205.114 31 256 31ZM372.895 256C372.895 276.396 367.222 296.224 357.42 313.602L326.208 282.39C329.304 274.177 331 265.284 331 256H372.895ZM256 124.75C276.719 124.75 293.5 141.531 293.5 162.25V249.682L218.5 174.682V162.25C218.5 141.531 235.281 124.75 256 124.75Z" fill="black"/>
<line x1="31.2843" y1="32" x2="481" y2="481.716" stroke="black" stroke-width="40" stroke-linecap="round"/>
</svg>
