<svg width="512" height="512" viewBox="0 0 512 512" fill="none" xmlns="http://www.w3.org/2000/svg">
<path d="M146.702 187.737L145.853 188.315H87.3555V323.685H145.853L218.853 373.267V259.888L275.208 316.243V481L128.946 381.699H68.5703C58.6063 381.699 49.0506 377.623 42.0049 370.37C34.9591 363.117 31.0001 353.28 31 343.022V168.978C31.0001 158.72 34.9591 148.883 42.0049 141.63C49.0506 134.377 58.6062 130.301 68.5703 130.301H89.2656L146.702 187.737ZM383.873 424.908C380.567 426.548 377.207 428.084 373.797 429.506C352.765 438.275 330.253 442.665 307.563 442.421V384.406C318.277 384.547 328.935 383.146 339.233 380.269L383.873 424.908ZM307.563 89.0527C330.253 88.8084 352.765 93.1982 373.797 101.968C394.828 110.737 413.962 123.714 430.091 140.145C446.22 156.575 459.024 176.135 467.763 197.692C476.501 219.25 481 242.377 481 265.736C481 289.096 476.501 312.224 467.763 333.781C459.477 354.222 447.533 372.865 432.567 388.749L391.979 348.161C401.927 337.553 409.874 325.122 415.403 311.503C421.289 297.006 424.32 281.449 424.32 265.736C424.32 250.024 421.289 234.468 415.403 219.971C409.517 205.474 400.893 192.323 390.032 181.284C379.171 170.245 366.288 161.536 352.132 155.662C337.975 149.788 322.826 146.867 307.563 147.067V89.0527ZM310.137 194.524C328.481 194.524 346.075 202.025 359.046 215.378C372.017 228.731 379.305 246.842 379.305 265.727C379.305 284.408 372.172 302.332 359.461 315.643L310.137 266.318V194.524ZM275.208 231.39L218.853 175.034V138.733L197.234 153.416L155.852 112.033L275.208 31V231.39Z" fill="black"/>
<line x1="31.2843" y1="32" x2="481" y2="481.716" stroke="black" stroke-width="40" stroke-linecap="round"/>
</svg>
