<svg width="512" height="512" viewBox="0 0 512 512" fill="none" xmlns="http://www.w3.org/2000/svg">
<g clip-path="url(#clip0_36_6)">
<path d="M170.667 426.667C194.24 426.667 213.333 445.76 213.333 469.333C213.333 492.906 194.24 512 170.667 512C147.094 512 128 492.906 128 469.333C128 445.76 147.094 426.667 170.667 426.667ZM64 448C75.7759 448 85.3328 457.536 85.333 469.333C85.333 481.13 75.776 490.667 64 490.667H21.333C9.55716 490.667 0 481.13 0 469.333C0.000183371 457.536 9.55727 448 21.333 448H64ZM407 448L449.667 490.667H277.333C265.557 490.667 256 481.13 256 469.333C256 457.536 265.557 448 277.333 448H407ZM169.558 210.558V239.36C168.349 275.062 210.415 299.997 241.173 282.173L343 384H106.667C47.851 384 0 336.149 0 277.333V106.667C0 87.7702 4.94021 70.0054 13.5957 54.5957L169.558 210.558ZM405.333 0C464.149 0 512 47.851 512 106.667V277.333C512 329.127 474.893 372.416 425.868 382.015L295.711 251.857L327.04 234.453C342.443 225.877 352.021 209.6 352.021 191.979L352 192C352 174.379 342.421 158.101 327.019 149.525L241.749 102.144C215.891 86.6186 181.737 101.772 172.14 128.286L56.4385 12.585C71.4151 4.55702 88.5189 0 106.667 0H405.333ZM212.224 144.64C212.48 139.584 217.003 137.429 221.014 139.456L306.282 186.837C310.549 189.76 310.549 194.24 306.282 197.184L264.342 220.488L212.224 168.37V144.64Z" fill="black"/>
<line x1="24.2843" y1="22" x2="474" y2="471.716" stroke="black" stroke-width="40" stroke-linecap="round"/>
</g>
<defs>
<clipPath id="clip0_36_6">
<rect width="512" height="512" fill="white"/>
</clipPath>
</defs>
</svg>
