<svg width="512" height="512" viewBox="0 0 512 512" fill="none" xmlns="http://www.w3.org/2000/svg">
<path d="M186.667 394.667C205.82 394.667 221.333 410.18 221.333 429.333C221.333 448.486 205.82 464 186.667 464C167.514 464 152 448.486 152 429.333C152 410.18 167.514 394.667 186.667 394.667ZM100 412C109.568 412 117.333 419.748 117.333 429.333C117.333 438.918 109.568 446.667 100 446.667H65.333C55.7652 446.667 48 438.918 48 429.333C48.0002 419.748 55.7653 412 65.333 412H100ZM374.065 412L408.732 446.667H273.333C263.765 446.667 256 438.918 256 429.333C256 419.748 263.765 412 273.333 412H374.065ZM185.766 223.7V242.48C184.823 270.325 216.279 290.109 240.906 278.841L322.065 360H134.667C86.879 360 48 321.121 48 273.333V134.667C48 120.529 51.4026 107.17 57.4326 95.3672L185.766 223.7ZM377.333 48C425.121 48 464 86.879 464 134.667V273.333C464 312.178 438.31 345.136 403.028 356.11L295.521 248.603L313.72 238.493C326.234 231.525 334.018 218.3 334.018 203.982L334 204C334 189.683 326.218 176.457 313.703 169.489L244.421 130.992C226.007 119.937 202.416 128.027 191.617 144.699L101.512 54.5938C111.73 50.347 122.93 48 134.667 48H377.333ZM220.432 165.52C220.64 161.412 224.315 159.661 227.573 161.308L296.854 199.806C300.321 202.18 300.321 205.82 296.854 208.212L270.033 223.115L220.432 173.514V165.52Z" fill="black"/>
<line x1="31.2843" y1="32" x2="454" y2="454.716" stroke="black" stroke-width="40" stroke-linecap="round"/>
</svg>
