<svg width="512" height="512" viewBox="0 0 512 512" fill="none" xmlns="http://www.w3.org/2000/svg">
<g clip-path="url(#clip0_36_2)">
<path d="M399.788 442.788C396.34 444.427 392.842 445.969 389.295 447.406C365.411 457.081 339.845 461.923 314.077 461.653V397.653C326.257 397.809 338.373 396.26 350.079 393.079L399.788 442.788ZM314.077 71.8291C339.845 71.5595 365.411 76.4019 389.295 86.0762C413.179 95.7505 434.908 110.065 453.225 128.191C471.541 146.317 486.082 167.895 496.006 191.677C505.93 215.459 511.039 240.972 511.039 266.741C511.039 292.51 505.93 318.024 496.006 341.806C486.082 365.587 471.541 387.165 453.225 405.291C452.205 406.3 451.174 407.295 450.134 408.28L404.677 362.823C405.709 361.867 406.73 360.896 407.732 359.906C420.067 347.728 429.861 333.221 436.545 317.229C443.229 301.236 446.671 284.075 446.671 266.741C446.671 249.408 443.229 232.247 436.545 216.254C429.861 200.261 420.067 185.754 407.732 173.576C395.398 161.398 380.767 151.79 364.69 145.311C348.613 138.831 331.409 135.608 314.077 135.829V71.8291Z" fill="black"/>
<path d="M317 188.182C337.833 188.182 357.812 196.457 372.543 211.188C387.274 225.918 395.55 245.898 395.55 266.73C395.55 287.563 387.274 307.543 372.543 322.273C371.134 323.683 369.676 325.032 368.175 326.321L317 275.146V188.182Z" fill="black"/>
<path d="M135.191 178.191L130.432 181.333H64V330.667H130.432L213.333 385.365V256.333L277.333 320.333V504.213L111.232 394.667H42.667C31.3512 394.667 20.4986 390.171 12.4971 382.17C4.49553 374.168 8.05933e-06 363.316 0 352V160C0 148.684 4.49552 137.832 12.4971 129.83C20.4986 121.829 31.3512 117.333 42.667 117.333H74.333L135.191 178.191ZM277.333 235.479L213.333 171.479V126.635L186.314 144.461L140.128 98.2744L277.333 7.78613V235.479Z" fill="black"/>
<line x1="22.2843" y1="22" x2="472" y2="471.716" stroke="black" stroke-width="40" stroke-linecap="round"/>
</g>
<defs>
<clipPath id="clip0_36_2">
<rect width="512" height="512" fill="white"/>
</clipPath>
</defs>
</svg>
