<svg width="512" height="512" viewBox="0 0 512 512" fill="none" xmlns="http://www.w3.org/2000/svg">
<path d="M181 406C201.719 406 218.5 422.781 218.5 443.5C218.5 464.219 201.719 481 181 481C160.281 481 143.5 464.219 143.5 443.5C143.5 422.781 160.281 406 181 406ZM87.25 424.75C97.6 424.75 106 433.131 106 443.5C106 453.869 97.6 462.25 87.25 462.25H49.75C39.4 462.25 31 453.869 31 443.5C31 433.131 39.4 424.75 49.75 424.75H87.25ZM383.715 424.75L421.215 462.25H274.75C264.4 462.25 256 453.869 256 443.5C256 433.131 264.4 424.75 274.75 424.75H383.715ZM180.025 221.061V241.375C179.006 271.496 213.033 292.897 239.673 280.708L327.465 368.5H124.75C73.0563 368.5 31 326.444 31 274.75V124.75C31 109.456 34.6814 95.0063 41.2041 82.2393L180.025 221.061ZM387.25 31C438.944 31 481 73.0563 481 124.75V274.75C481 318.737 450.549 355.744 409.62 365.802L294.293 250.475L318.438 237.062C331.975 229.525 340.393 215.219 340.394 199.731L340.375 199.75C340.375 184.263 331.956 169.956 318.419 162.419L243.475 120.775C221.984 107.872 193.975 119.079 183.858 140.04L84.0977 40.2793C96.4016 34.3339 110.194 31 124.75 31H387.25ZM217.525 158.125C217.75 153.681 221.725 151.787 225.25 153.568L300.193 195.213C303.943 197.782 303.943 201.719 300.193 204.307L266.723 222.904L217.525 173.707V158.125Z" fill="black"/>
<line x1="31.2843" y1="32" x2="481" y2="481.716" stroke="black" stroke-width="40" stroke-linecap="round"/>
</svg>
