<svg width="512" height="512" viewBox="0 0 512 512" fill="none" xmlns="http://www.w3.org/2000/svg">
<path d="M181 406C201.719 406 218.5 422.781 218.5 443.5C218.5 464.219 201.719 481 181 481C160.281 481 143.5 464.219 143.5 443.5C143.5 422.781 160.281 406 181 406ZM225.25 153.569C221.725 151.788 217.75 153.681 217.525 158.125V241.394C217.956 245.8 221.2 247.712 225.25 245.95L300.194 204.306C303.944 201.719 303.944 197.781 300.194 195.213L225.25 153.569ZM481 124.75V274.75C481 326.444 438.944 368.5 387.25 368.5H124.75C73.0563 368.5 31 326.444 31 274.75V124.75C31 73.0563 73.0563 31 124.75 31H387.25C438.944 31 481 73.0563 481 124.75ZM340.375 199.75C340.375 184.263 331.956 169.956 318.419 162.419L243.475 120.775C216.4 104.519 178.975 126.531 180.025 158.106V241.375C178.956 272.95 216.4 294.944 243.475 278.706L318.437 237.062C331.975 229.525 340.394 215.219 340.394 199.731L340.375 199.75ZM481 443.5C481 433.131 472.6 424.75 462.25 424.75H274.75C264.4 424.75 256 433.131 256 443.5C256 453.869 264.4 462.25 274.75 462.25H462.25C472.6 462.25 481 453.869 481 443.5ZM106 443.5C106 433.131 97.6 424.75 87.25 424.75H49.75C39.4 424.75 31 433.131 31 443.5C31 453.869 39.4 462.25 49.75 462.25H87.25C97.6 462.25 106 453.869 106 443.5Z" fill="black"/>
</svg>
