<svg width="512" height="512" viewBox="0 0 512 512" fill="none" xmlns="http://www.w3.org/2000/svg">
<path d="M307.563 89.0528C330.253 88.8085 352.766 93.198 373.797 101.968C394.829 110.737 413.962 123.713 430.091 140.144C446.22 156.575 459.024 176.135 467.762 197.692C476.501 219.25 481 242.377 481 265.737C481 289.096 476.501 312.223 467.762 333.781C459.024 355.339 446.22 374.899 430.091 391.329C413.962 407.76 394.829 420.736 373.797 429.506C352.766 438.276 330.253 442.665 307.563 442.421V384.406C322.825 384.607 337.975 381.685 352.131 375.811C366.288 369.938 379.171 361.228 390.032 350.189C400.894 339.15 409.518 326 415.404 311.502C421.289 297.005 424.32 281.449 424.32 265.737C424.32 250.024 421.289 234.468 415.404 219.971C409.518 205.474 400.894 192.324 390.032 181.285C379.171 170.245 366.288 161.536 352.131 155.662C337.975 149.789 322.825 146.867 307.563 147.068V89.0528Z" fill="black"/>
<path d="M310.137 194.524C328.481 194.524 346.075 202.025 359.046 215.378C372.017 228.732 379.305 246.843 379.305 265.727C379.305 284.611 372.017 302.722 359.046 316.076C346.075 329.429 328.481 336.931 310.137 336.931V194.524Z" fill="black"/>
<path fill-rule="evenodd" clip-rule="evenodd" d="M275.208 481L128.947 381.699H68.5708C58.6066 381.699 49.0502 377.624 42.0044 370.37C34.9586 363.117 31 353.28 31 343.022V168.978C31 158.72 34.9586 148.883 42.0044 141.629C49.0502 134.376 58.6065 130.301 68.5708 130.301H128.947L275.208 31V481ZM145.853 188.316H87.3558V323.684H145.853L218.852 373.267V138.733L145.853 188.316Z" fill="black"/>
</svg>
