<svg width="512" height="512" viewBox="0 0 512 512" fill="none" xmlns="http://www.w3.org/2000/svg">
<path d="M42.6667 117.333C31.3508 117.333 20.4983 121.829 12.4968 129.83C4.49523 137.832 0 148.684 0 160L0 352C0 363.316 4.49523 374.168 12.4968 382.17C20.4983 390.171 31.3508 394.667 42.6667 394.667H111.232L277.333 504.213V7.78662L111.232 117.333H42.6667ZM213.333 126.635V385.365L130.432 330.667H64V181.333H130.432L213.333 126.635Z" fill="black"/>
<path d="M317 188.181V345.28C337.833 345.28 357.812 337.004 372.543 322.274C387.274 307.543 395.549 287.563 395.549 266.731C395.549 245.898 387.274 225.919 372.543 211.188C357.812 196.457 337.833 188.181 317 188.181Z" fill="black"/>
<path d="M314.077 71.8293V135.829C331.41 135.608 348.613 138.831 364.69 145.31C380.767 151.79 395.397 161.398 407.732 173.576C420.067 185.754 429.86 200.261 436.545 216.254C443.229 232.247 446.671 249.408 446.671 266.741C446.671 284.075 443.229 301.236 436.545 317.229C429.86 333.222 420.067 347.728 407.732 359.907C395.397 372.085 380.767 381.693 364.69 388.172C348.613 394.652 331.41 397.875 314.077 397.653V461.653C339.845 461.923 365.411 457.08 389.295 447.406C413.179 437.732 434.908 423.418 453.225 405.292C471.542 387.166 486.082 365.587 496.006 341.806C505.93 318.024 511.039 292.511 511.039 266.741C511.039 240.972 505.93 215.459 496.006 191.677C486.082 167.895 471.542 146.317 453.225 128.191C434.908 110.065 413.179 95.7508 389.295 86.0765C365.411 76.4021 339.845 71.5597 314.077 71.8293Z" fill="black"/>
</svg>
