<svg width="512" height="512" viewBox="0 0 512 512" fill="none" xmlns="http://www.w3.org/2000/svg">
<g clip-path="url(#clip0_38_39)">
<path d="M256.47 0.000416214C324.876 0.123255 386.985 27.0796 432.84 70.901L469.707 34.0339C485.315 18.4272 512 29.4807 512 51.5524V189.936C512 203.618 500.908 214.71 487.226 214.71H348.842C326.771 214.71 315.717 188.025 331.324 172.417L374.421 129.321C342.561 99.4894 301.336 82.965 257.538 82.5872C162.159 81.7634 81.7621 158.95 82.5868 257.495C83.3693 350.977 159.158 429.419 256 429.419C298.454 429.419 338.578 414.268 370.198 386.523C375.094 382.228 382.488 382.489 387.094 387.094L428.035 428.035C433.064 433.064 432.815 441.264 427.538 446.03C382.144 487.033 321.988 512 256 512C114.616 512 0.00103227 397.385 6.93425e-09 256.002C-0.00103225 114.78 115.247 -0.252487 256.47 0.000416214Z" fill="black"/>
</g>
<defs>
<clipPath id="clip0_38_39">
<rect width="512" height="512" fill="white"/>
</clipPath>
</defs>
</svg>
